<?xml version="1.0" encoding="UTF-8"?>
<svg id="Calque_1" xmlns="http://www.w3.org/2000/svg" version="1.1" viewBox="0 0 100 125">
  <defs>
    <style>
      .st0 {
        fill: #fff;
      }
    </style>
  </defs>
  <path class="st0" d="M95,25.6c0-2.1-1-4-2.7-5.5-1.7-1.5-4-2.3-6.4-2.3H14.1c-2.4,0-4.7.8-6.4,2.3-1.7,1.4-2.7,3.4-2.7,5.5v39.1c0,1.2.3,2.3.9,3.4h0s.5.7.5.7c.2.3.4.5.6.7,0,0,.2.2.3.3,0,0,.2.2.3.3h0c1.7,1.5,4,2.4,6.6,2.4h71.7c2.6,0,4.9-.9,6.6-2.4h0c0,0,.1-.1.2-.2.1-.1.2-.2.3-.3.2-.2.4-.4.5-.7,0,0,0,0,0,0,0,0,0,0,0,0,0,0,0,0,0,0l.5-.7h0c.6-1.1.9-2.2.9-3.4V25.6ZM10.5,20.5c1.1-.6,2.3-.9,3.6-.9h71.7c1.1,0,2.2.2,3.1.6.1,0,.2.1.3.2l-37.2,29.9c-1.3,1-3.2,1-4.5,0L10.5,20.6s0,0,0,0ZM7.2,64.7V25.6c0-1.4.6-2.7,1.6-3.8l28.8,23.1c-2.2,1.6-6.4,4.7-14.5,10.6l-15.4,11.3c-.3-.7-.5-1.4-.5-2.1ZM90.1,69.4c-1.2.8-2.6,1.2-4.2,1.2H14.1c-1.5,0-3-.4-4.1-1.2-.4-.3-.9-.6-1.2-1,4.1-3,24.2-17.7,30.4-22.3l6.9,5.6c1.1.8,2.4,1.3,3.8,1.3s2.7-.4,3.8-1.3l7.1-5.7,30.5,22.4s0,0,0,0c-.3.4-.7.7-1.2,1ZM92.8,64.7c0,.7-.2,1.4-.5,2.1l-30.1-22,28.8-23.1c1.1,1.1,1.8,2.5,1.8,3.9v39.1h0Z"/>
</svg>