<?xml version="1.0" encoding="UTF-8"?>
<svg id="Calque_1" data-name="Calque 1" xmlns="http://www.w3.org/2000/svg" viewBox="0 0 151.42 45.93">
  <defs>
    <style>
      .cls-1 {
        fill: #fff;
      }
    </style>
  </defs>
  <path class="cls-1" d="M2.35,19.08c.13-.81.48-1.61.48-2.4-7.23,11.78.19,27,13.51,29.02,14.29,2.17,26.75-11.97,21.11-25.94-.1-.25-.18-.65-.42-.78,1.3,7.09-2.06,14.32-8.06,18.02C16.23,44.86-.06,34.19,2.35,19.08M30.58,4.74c3.51.82,6.52,2.73,9.05,5.26-.14-.56-.56-1.1-.88-1.58C30.98-2.95,13.91-2.8,6.46,8.86c-7.74,12.13.05,27.73,13.77,29.6.07-.33-.1-.18-.25-.26-3.6-1.79-6.46-3.72-8.57-7.31C3.43,17.32,15.69,1.28,30.58,4.74M63.68,8.56h.96V2.54h-1.7c-7.36,0-10.98,4.51-10.98,11.98v2.17h-7.27v.69c-.92-1.96-2.15-3.75-3.64-5.27-4.34-4.41-10.84-6.36-16.88-5.42-4.86.76-9.33,3.49-12.34,7.4.12.19.25-.05.34-.12,7.78-6.11,19.02-4.76,25,3.18,6.96,9.24,3.37,22.2-7.04,26.7l-3.44,1.17c9.97.35,18.84-7.2,19.85-17.34.19-1.95.05-3.94-.36-5.87h5.79v20.9h6.56v-20.9h11.15v20.9h6.56v-26.02h-17.71v-2.95c-.06-2.9,1.13-5.18,5.15-5.18M77.21,7.5c0-2.28-1.92-3.96-4.24-3.96s-4.3,1.67-4.3,3.96,1.98,3.96,4.3,3.96,4.24-1.73,4.24-3.96M81.8,42.72h6.56V2.54h-6.56v40.17ZM114,29.68c0,4.35-3.51,7.69-7.58,7.69-4.3,0-7.53-3.51-7.53-7.69s3.23-7.63,7.47-7.63c3.9,0,7.64,3.18,7.64,7.63M114.11,42.72h6.56v-26.02h-6.56v3.62c-1.75-2.73-5.26-4.29-8.88-4.29-7.47,0-12.9,5.79-12.9,13.65s5.66,13.71,12.73,13.71c3.79,0,7.3-1.89,9.05-4.74v4.07ZM144.91,27.45h-14.09c.79-3.96,3.68-5.68,7.19-5.68s6.51,2.12,6.9,5.68M151.42,29.46c0-8.14-5.94-13.43-13.47-13.43s-13.86,5.35-13.86,13.65,6,13.71,13.86,13.71c4.81,0,9.51-2.12,11.94-5.91l-4.41-3.29c-1.53,2.12-4.3,3.34-7.13,3.34-3.96,0-6.79-1.95-7.53-5.57h20.48c.06-.95.11-1.78.11-2.51"/>
</svg>