<?xml version="1.0" encoding="UTF-8"?>
<svg id="Calque_1" data-name="Calque 1" xmlns="http://www.w3.org/2000/svg" xmlns:xlink="http://www.w3.org/1999/xlink" viewBox="0 0 211.89 161.93">
  <defs>
    <style>
      .cls-1 {
        fill: none;
      }

      .cls-2 {
        clip-path: url(#clippath-1);
      }

      .cls-3 {
        fill: #00261e;
      }

      .cls-4 {
        clip-path: url(#clippath);
      }
    </style>
    <clipPath id="clippath">
      <rect class="cls-1" width="211.89" height="161.93"/>
    </clipPath>
    <clipPath id="clippath-1">
      <rect class="cls-1" width="211.89" height="161.93"/>
    </clipPath>
  </defs>
  <g class="cls-4">
    <g class="cls-2">
      <path class="cls-3" d="M156.98,123.11c11.27,0,23.71,0,23.39,1.77h1.06l10.84-34.02h-1.06c-5,13.23-11.06,19.25-30.62,19.25h-28.49c19.24-11.22,56.98-29.29,56.98-47.6,0-21.14-19.45-25.63-38.06-25.63-5.85,0-11.48,2.01-16.8,4.02-1.6.59-3.4,1.06-5,1.06-2.44,0-4.15-1.18-2.98-5.08h-1.06l-9.25,28.59h1.06l.85-1.54c8.51-15.47,19.77-25.87,33.17-25.87,12.01,0,16.8,8.15,16.8,24.45,0,24.1-32.21,45.12-56.98,59.41v1.18h46.14ZM41.1,80.59c0-17.84,0-42.52,19.14-42.52s19.35,24.8,19.35,42.52,0,43.11-19.35,43.11-19.14-25.4-19.14-43.11M100.85,80.59c0-29.65-21.26-43.71-40.61-43.71s-40.4,14.18-40.4,43.71,21.26,44.29,40.4,44.29,40.61-14.53,40.61-44.29"/>
    </g>
  </g>
</svg>