<?xml version="1.0" encoding="UTF-8"?>
<svg id="Calque_1" data-name="Calque 1" xmlns="http://www.w3.org/2000/svg" xmlns:xlink="http://www.w3.org/1999/xlink" viewBox="0 0 211.89 161.93">
  <defs>
    <style>
      .cls-1 {
        fill: none;
      }

      .cls-2 {
        clip-path: url(#clippath-1);
      }

      .cls-3 {
        fill: #00261e;
      }

      .cls-4 {
        clip-path: url(#clippath);
      }
    </style>
    <clipPath id="clippath">
      <rect class="cls-1" width="211.89" height="161.93"/>
    </clipPath>
    <clipPath id="clippath-1">
      <rect class="cls-1" width="211.89" height="161.93"/>
    </clipPath>
  </defs>
  <g class="cls-4">
    <g class="cls-2">
      <path class="cls-3" d="M132.17,103.39c0-5.63-4.46-10.59-9.53-10.59s-9.53,4.85-9.53,10.59c0,17.58,24.54,20.06,34.28,20.06,15.21,0,40.46-2.37,40.46-25.13,0-12.96-13.29-20.06-23.63-20.28,8.92-.22,20.38-6.42,20.38-19.04,0-17.46-21.7-19.49-35.7-19.49-5.48,0-8.11.9-13.28,2.7-1.62.56-3.45,1.24-4.97,1.24-2.03,0-3.65-1.13-3.85-5.07h-1.01l-7.91,25.01h1.01l.81-1.46c7.71-13.86,17.34-21.18,29.21-21.18,13.28,0,15.41,9.8,15.41,18.48,0,8.22-4.97,18.14-13.69,18.14h-6.79v1.24h6.79c13.18,0,16.93,10.59,16.93,19.83,0,15.66-5.17,23.89-20.18,23.89s-18.56-3.72-18.56-7.55c0-2.25,1.32-4.62,2.03-6.08.71-1.46,1.32-3.94,1.32-5.3M44.55,81.19c0-17.01,0-40.56,18.25-40.56s18.46,23.66,18.46,40.56,0,41.13-18.46,41.13-18.25-24.22-18.25-41.13M101.54,81.19c0-28.28-20.28-41.69-38.74-41.69s-38.54,13.52-38.54,41.69,20.28,42.25,38.54,42.25,38.74-13.86,38.74-42.25"/>
    </g>
  </g>
</svg>