<?xml version="1.0" encoding="UTF-8"?>
<svg id="Calque_1" data-name="Calque 1" xmlns="http://www.w3.org/2000/svg" xmlns:xlink="http://www.w3.org/1999/xlink" viewBox="0 0 211.89 161.93">
  <defs>
    <style>
      .cls-1 {
        fill: none;
      }

      .cls-2 {
        clip-path: url(#clippath-1);
      }

      .cls-3 {
        fill: #00261e;
      }

      .cls-4 {
        clip-path: url(#clippath);
      }
    </style>
    <clipPath id="clippath">
      <rect class="cls-1" width="211.89" height="161.93"/>
    </clipPath>
    <clipPath id="clippath-1">
      <rect class="cls-1" width="211.89" height="161.93"/>
    </clipPath>
  </defs>
  <g class="cls-4">
    <g class="cls-2">
      <path class="cls-3" d="M145.87,123.57c-15.73,0-19.32-4.11-19.32-8.1,0-2.46,1.37-4.81,2.11-6.34.74-1.53,1.37-4.11,1.37-5.52,0-5.87-4.65-11.03-9.93-11.03s-9.93,5.05-9.93,11.03c0,17.25,25.56,21.12,35.69,21.12,17.85,0,46.15-1.64,46.15-27.1,0-23.7-21.01-27.1-43.19-27.1-8.98,0-19.01,1.64-28.2,5.51l4.22-24.64h28.09c19.22,0,23.87,4.34,28.62,16.78h1.06l-8.24-31.44h-1.06c.32,1.76-10.03,1.76-21.12,1.76h-26.29l-6.55,39.07c13.94-5.63,23.87-5.87,29.46-5.87,17.53,0,22.07,14.55,22.07,25.93s-4.65,25.93-25.03,25.93M41.22,80.74c0-17.72,0-42.24,19.01-42.24s19.22,24.64,19.22,42.24,0,42.83-19.22,42.83-19.01-25.23-19.01-42.83M100.57,80.74c0-29.45-21.12-43.41-40.34-43.41s-40.13,14.08-40.13,43.41,21.12,44,40.13,44,40.34-14.43,40.34-44"/>
    </g>
  </g>
</svg>