<svg width="130" height="54" viewBox="0 0 130 54" fill="none" xmlns="http://www.w3.org/2000/svg">
<path d="M2.01267 16.6238C2.12267 15.9238 2.42264 15.2238 2.42264 14.5438C-3.77736 24.8038 2.58267 38.0438 14.0127 39.8138C26.2727 41.7038 36.9526 29.3938 32.1126 17.2338C32.0226 17.0138 31.9627 16.6738 31.7527 16.5538C32.8627 22.7238 29.9827 29.0238 24.8427 32.2438C13.9327 39.0738 -0.0373204 29.7838 2.02268 16.6338M26.2227 4.13376C29.2327 4.84376 31.8126 6.50377 33.9826 8.71377C33.8626 8.22377 33.5027 7.75376 33.2227 7.33376C26.5627 -2.57624 11.9226 -2.43623 5.54264 7.71377C-1.09736 18.2738 5.58264 31.8638 17.3526 33.4938C17.4026 33.2038 17.2727 33.3338 17.1427 33.2638C14.0627 31.7038 11.6026 30.0238 9.79264 26.9038C2.95264 15.0838 13.4626 1.11375 26.2326 4.12375M54.6026 7.46377H55.4226V2.22376H53.9727C47.6627 2.22376 44.5627 6.15375 44.5627 12.6538V14.5438H38.3327V15.1438C37.5427 13.4438 36.4927 11.8738 35.2127 10.5538C31.4927 6.71376 25.9126 5.01376 20.7326 5.83376C16.5626 6.49376 12.7327 8.87376 10.1527 12.2738C10.2527 12.4438 10.3627 12.2338 10.4427 12.1738C17.1127 6.85376 26.7527 8.03376 31.8827 14.9438C37.8527 22.9938 34.7726 34.2738 25.8526 38.1938L22.9027 39.2138C31.4427 39.5138 39.0526 32.9438 39.9226 24.1138C40.0926 22.4138 39.9626 20.6838 39.6126 19.0038H44.5727V37.1938H50.2027V19.0038H59.7627V37.1938H65.3927V14.5338H50.2127V11.9638C50.1627 9.44377 51.1827 7.45376 54.6327 7.45376M66.2027 6.54375C66.2027 4.55375 64.5527 3.10377 62.5627 3.10377C60.5727 3.10377 58.8727 4.56375 58.8727 6.54375C58.8727 8.52375 60.5727 9.98376 62.5627 9.98376C64.5527 9.98376 66.2027 8.48375 66.2027 6.54375ZM70.1427 37.2038H75.7727V2.22376H70.1427V37.2038ZM97.7527 25.8538C97.7527 29.6338 94.7427 32.5438 91.2527 32.5438C87.5627 32.5438 84.8027 29.4838 84.8027 25.8538C84.8027 22.2238 87.5727 19.2038 91.2027 19.2038C94.5527 19.2038 97.7527 21.9738 97.7527 25.8538ZM97.8526 37.2038H103.483V14.5438H97.8526V17.6938C96.3526 15.3138 93.3426 13.9538 90.2326 13.9538C83.8326 13.9538 79.1726 19.0038 79.1726 25.8438C79.1726 32.6838 84.0227 37.7738 90.0927 37.7738C93.3427 37.7738 96.3526 36.1238 97.8526 33.6538V37.1938V37.2038ZM124.253 23.9038H112.173C112.853 20.4638 115.323 18.9538 118.333 18.9538C121.343 18.9538 123.913 20.7938 124.253 23.9038ZM129.833 25.6538C129.833 18.5738 124.743 13.9638 118.283 13.9638C111.823 13.9638 106.393 18.6238 106.393 25.8538C106.393 33.0838 111.533 37.7838 118.283 37.7838C122.403 37.7838 126.433 35.9438 128.523 32.6438L124.743 29.7838C123.433 31.6238 121.053 32.6938 118.633 32.6938C115.233 32.6938 112.813 30.9938 112.183 27.8438H129.743C129.793 27.0238 129.843 26.2938 129.843 25.6638" fill="white"/>
<path d="M62.48 51.37H64.79V50.86H62.48V48.75H65.13V48.24H61.95V53.88H65.22V53.37H62.48V51.36V51.37ZM58.07 53.99C58.85 53.99 59.56 53.66 60.04 53.14L59.66 52.8C59.26 53.23 58.69 53.49 58.07 53.49C56.8 53.49 55.81 52.4 55.81 51.09C55.81 49.78 56.8 48.66 58.07 48.66C58.69 48.66 59.27 48.93 59.66 49.35L60.04 49.01C59.55 48.48 58.85 48.15 58.07 48.15C56.51 48.15 55.27 49.48 55.27 51.08C55.27 52.68 56.51 53.99 58.07 53.99ZM53.23 48.25H52.7V53.89H53.23V48.25ZM50.77 48.25H47.63V53.89H48.16V51.38H50.22V50.87H48.16V48.76H50.76V48.25H50.77ZM45.71 48.25H42.57V53.89H43.1V51.38H45.16V50.87H43.1V48.76H45.7V48.25H45.71ZM37.69 53.48C36.4 53.48 35.41 52.39 35.41 51.08C35.41 49.77 36.4 48.65 37.69 48.65C38.98 48.65 39.97 49.76 39.97 51.08C39.97 52.4 38.98 53.48 37.69 53.48ZM37.69 53.99C39.28 53.99 40.5 52.68 40.5 51.08C40.5 49.48 39.27 48.15 37.69 48.15C36.11 48.15 34.88 49.48 34.88 51.08C34.88 52.68 36.11 53.99 37.69 53.99ZM28.61 50.72L26.87 48.25H26.24L28.33 51.25V53.9H28.86V51.25L30.99 48.25H30.35L28.6 50.72H28.61ZM23.51 48.25H22.98V53.89H25.88V53.38H23.51V48.24V48.25ZM20.53 48.25H20V53.89H20.53V48.25ZM17.17 48.25H16.68L14.54 52.73L12.4 48.25H11.9L11.21 53.89H11.73L12.3 49.2L14.3 53.31H14.79L16.77 49.21L17.34 53.89H17.86L17.16 48.25H17.17ZM7.44 48.96L8.53998 51.91H6.34003L7.44 48.96ZM9.84003 53.89L7.71997 48.25H7.15002L5.02002 53.89H5.59003L6.15002 52.39H8.71997L9.28003 53.89H9.84003ZM4.27002 48.25H1.13V53.89H1.65997V51.38H3.71997V50.87H1.65997V48.76H4.26001V48.25H4.27002Z" fill="white"/>
</svg>
